<?xml version="1.0" standalone="no"?>
<!DOCTYPE svg PUBLIC "-//W3C//DTD SVG 20010904//EN"
 "http://www.w3.org/TR/2001/REC-SVG-20010904/DTD/svg10.dtd">
<svg version="1.0" xmlns="http://www.w3.org/2000/svg"
 width="260.000000pt" height="260.000000pt" viewBox="0 0 260.000000 260.000000"
 preserveAspectRatio="xMidYMid meet">
<metadata>
Created by potrace 1.11, written by Peter Selinger 2001-2013
</metadata>
<g transform="translate(0.000000,260.000000) scale(0.100000,-0.100000)"
fill="#000000" stroke="none">
<path d="M329 2403 c-2 -12 8 -154 16 -233 2 -19 6 -69 10 -110 3 -41 8 -95
11 -120 2 -25 6 -70 8 -100 8 -100 17 -194 21 -235 3 -22 7 -69 10 -105 3 -36
7 -87 10 -115 3 -27 7 -75 10 -105 2 -30 7 -84 11 -120 3 -36 7 -85 9 -110 1
-25 6 -73 9 -108 14 -144 18 -189 21 -227 18 -216 26 -299 28 -301 2 -1 461
-130 512 -144 17 -4 88 -24 159 -44 79 -22 138 -33 150 -29 12 4 26 8 31 9 6
1 100 28 210 59 110 31 272 77 360 101 88 25 163 48 167 52 8 8 16 75 23 187
3 44 7 94 9 110 2 17 7 64 11 105 3 41 8 95 10 120 13 126 22 230 30 330 8 97
15 180 20 230 2 25 7 77 11 115 3 39 7 86 9 105 11 107 19 200 19 237 1 24 3
43 6 43 3 0 5 19 6 43 0 23 4 76 7 118 4 42 10 103 13 135 3 33 7 71 9 87 l3
27 -974 0 c-536 0 -975 -3 -975 -7z m1575 -460 c-1 -73 -10 -172 -16 -178 -2
-2 -213 -6 -469 -7 -350 -2 -463 -6 -462 -15 3 -15 15 -170 16 -205 l1 -28
165 0 c91 -1 293 -1 447 0 l282 0 -4 -53 c-1 -28 -5 -75 -8 -103 -4 -29 -8
-78 -11 -110 -2 -33 -7 -86 -10 -119 -10 -99 -13 -137 -20 -210 -10 -117 -15
-158 -18 -161 -1 -1 -36 -11 -77 -23 -165 -44 -337 -91 -373 -102 -20 -7 -43
-12 -50 -12 -20 1 -491 134 -499 141 -3 4 -9 52 -13 107 -3 55 -7 118 -9 140
-2 22 -5 60 -7 85 l-4 45 123 2 122 2 1 -27 c1 -15 2 -40 4 -57 1 -16 3 -43 4
-60 1 -16 5 -35 9 -42 4 -6 67 -27 139 -47 l132 -34 88 24 c48 14 93 27 98 28
6 2 27 6 48 11 24 5 37 13 38 24 0 9 2 25 5 36 4 21 15 165 18 228 l1 38 -422
1 -423 0 -1 26 c0 15 -2 41 -4 57 -1 17 -5 66 -9 110 -4 44 -9 98 -11 120 -2
22 -7 72 -10 110 -3 39 -7 88 -10 110 -2 22 -7 77 -11 122 l-6 82 34 3 c18 2
292 2 608 1 l575 -2 -1 -58z"/>
</g>
</svg>
